<svg id="visual" viewBox="0 0 900 600" width="900" height="600" xmlns="http://www.w3.org/2000/svg" xmlns:xlink="http://www.w3.org/1999/xlink" version="1.1"><rect x="0" y="0" width="900" height="600" fill="#0b0021"></rect><defs><linearGradient id="grad1_0" x1="33.3%" y1="0%" x2="100%" y2="100%"><stop offset="20%" stop-color="#3c4efa" stop-opacity="1"></stop><stop offset="80%" stop-color="#3c4efa" stop-opacity="1"></stop></linearGradient></defs><defs><linearGradient id="grad1_1" x1="33.3%" y1="0%" x2="100%" y2="100%"><stop offset="20%" stop-color="#3c4efa" stop-opacity="1"></stop><stop offset="80%" stop-color="#242985" stop-opacity="1"></stop></linearGradient></defs><defs><linearGradient id="grad1_2" x1="33.3%" y1="0%" x2="100%" y2="100%"><stop offset="20%" stop-color="#0b0021" stop-opacity="1"></stop><stop offset="80%" stop-color="#242985" stop-opacity="1"></stop></linearGradient></defs><defs><linearGradient id="grad2_0" x1="0%" y1="0%" x2="66.7%" y2="100%"><stop offset="20%" stop-color="#3c4efa" stop-opacity="1"></stop><stop offset="80%" stop-color="#3c4efa" stop-opacity="1"></stop></linearGradient></defs><defs><linearGradient id="grad2_1" x1="0%" y1="0%" x2="66.7%" y2="100%"><stop offset="20%" stop-color="#242985" stop-opacity="1"></stop><stop offset="80%" stop-color="#3c4efa" stop-opacity="1"></stop></linearGradient></defs><defs><linearGradient id="grad2_2" x1="0%" y1="0%" x2="66.7%" y2="100%"><stop offset="20%" stop-color="#242985" stop-opacity="1"></stop><stop offset="80%" stop-color="#0b0021" stop-opacity="1"></stop></linearGradient></defs><g transform="translate(900, 0)"><path d="M0 486.7C-76.2 459.4 -152.4 432.1 -228 394.9C-303.6 357.8 -378.5 310.8 -421.5 243.4C-464.6 175.9 -475.7 88 -486.7 0L0 0Z" fill="#171850"></path><path d="M0 324.5C-50.8 306.3 -101.6 288 -152 263.3C-202.4 238.5 -252.3 207.2 -281 162.2C-309.7 117.3 -317.1 58.6 -324.5 0L0 0Z" fill="#303bbe"></path><path d="M0 162.2C-25.4 153.1 -50.8 144 -76 131.6C-101.2 119.3 -126.2 103.6 -140.5 81.1C-154.9 58.6 -158.6 29.3 -162.2 0L0 0Z" fill="#3c4efa"></path></g><g transform="translate(0, 600)"><path d="M0 -486.7C102.4 -484 204.8 -481.2 243.4 -421.5C282 -361.9 256.7 -245.2 286.7 -165.5C316.6 -85.8 401.7 -42.9 486.7 0L0 0Z" fill="#171850"></path><path d="M0 -324.5C68.3 -322.7 136.5 -320.8 162.2 -281C188 -241.2 171.2 -163.5 191.1 -110.3C211.1 -57.2 267.8 -28.6 324.5 0L0 0Z" fill="#303bbe"></path><path d="M0 -162.2C34.1 -161.3 68.3 -160.4 81.1 -140.5C94 -120.6 85.6 -81.7 95.6 -55.2C105.5 -28.6 133.9 -14.3 162.2 0L0 0Z" fill="#3c4efa"></path></g></svg>